<svg width="20" height="20" viewBox="0 0 20 20" fill="none" xmlns="http://www.w3.org/2000/svg">
<path fill-rule="evenodd" clip-rule="evenodd" d="M13.7933 18.4442C12.5933 18.4 9.19249 17.93 5.63083 14.3692C2.07 10.8075 1.60083 7.4075 1.55583 6.20666C1.48916 4.37666 2.89083 2.59916 4.50999 1.905C4.70498 1.8208 4.9185 1.78875 5.1296 1.81198C5.34071 1.83521 5.54215 1.91292 5.71416 2.0375C7.04749 3.00916 7.96749 4.47916 8.75749 5.635C8.93131 5.88894 9.00563 6.19795 8.96629 6.50316C8.92695 6.80837 8.7767 7.08844 8.54416 7.29L6.91833 8.4975C6.83978 8.55422 6.78449 8.63752 6.76272 8.73193C6.74096 8.82634 6.7542 8.92545 6.79999 9.01083C7.16833 9.68 7.82333 10.6767 8.57333 11.4267C9.32333 12.1767 10.3675 12.875 11.0833 13.285C11.1731 13.3354 11.2787 13.3495 11.3785 13.3244C11.4784 13.2992 11.5648 13.2368 11.62 13.15L12.6783 11.5392C12.8729 11.2807 13.1599 11.1076 13.4793 11.056C13.7987 11.0044 14.1256 11.0784 14.3917 11.2625C15.5642 12.0742 16.9325 12.9783 17.9342 14.2608C18.0689 14.4341 18.1545 14.6403 18.1822 14.858C18.2099 15.0757 18.1787 15.2969 18.0917 15.4983C17.3942 17.1258 15.6292 18.5117 13.7933 18.4442Z" fill="#99a8a5"/>
</svg>
