<svg width="21" height="20" viewBox="0 0 21 20" fill="none" xmlns="http://www.w3.org/2000/svg">
<path d="M11.4375 14.0625C11.4375 14.2479 11.3825 14.4292 11.2795 14.5833C11.1765 14.7375 11.0301 14.8577 10.8588 14.9286C10.6875 14.9996 10.499 15.0182 10.3171 14.982C10.1352 14.9458 9.9682 14.8565 9.83709 14.7254C9.70598 14.5943 9.61669 14.4273 9.58052 14.2454C9.54434 14.0635 9.56291 13.875 9.63387 13.7037C9.70482 13.5324 9.82499 13.386 9.97916 13.283C10.1333 13.18 10.3146 13.125 10.5 13.125C10.7486 13.125 10.9871 13.2238 11.1629 13.3996C11.3387 13.5754 11.4375 13.8139 11.4375 14.0625ZM10.5 5.625C8.77657 5.625 7.375 6.88672 7.375 8.4375V8.75C7.375 8.91576 7.44085 9.07473 7.55806 9.19194C7.67527 9.30915 7.83424 9.375 8 9.375C8.16576 9.375 8.32474 9.30915 8.44195 9.19194C8.55916 9.07473 8.625 8.91576 8.625 8.75V8.4375C8.625 7.57812 9.46641 6.875 10.5 6.875C11.5336 6.875 12.375 7.57812 12.375 8.4375C12.375 9.29688 11.5336 10 10.5 10C10.3342 10 10.1753 10.0658 10.0581 10.1831C9.94085 10.3003 9.875 10.4592 9.875 10.625V11.25C9.875 11.4158 9.94085 11.5747 10.0581 11.6919C10.1753 11.8092 10.3342 11.875 10.5 11.875C10.6658 11.875 10.8247 11.8092 10.9419 11.6919C11.0592 11.5747 11.125 11.4158 11.125 11.25V11.1938C12.55 10.932 13.625 9.79531 13.625 8.4375C13.625 6.88672 12.2234 5.625 10.5 5.625ZM18.625 10C18.625 11.607 18.1485 13.1779 17.2557 14.514C16.3629 15.8502 15.094 16.8916 13.6093 17.5065C12.1247 18.1215 10.491 18.2824 8.9149 17.9689C7.3388 17.6554 5.89106 16.8815 4.75476 15.7452C3.61846 14.6089 2.84463 13.1612 2.53112 11.5851C2.21762 10.009 2.37852 8.37535 2.99348 6.8907C3.60844 5.40605 4.64985 4.1371 5.986 3.24431C7.32214 2.35152 8.89303 1.875 10.5 1.875C12.6542 1.87727 14.7195 2.73403 16.2427 4.25727C17.766 5.78051 18.6227 7.84581 18.625 10ZM17.375 10C17.375 8.64025 16.9718 7.31104 16.2164 6.18045C15.4609 5.04987 14.3872 4.16868 13.131 3.64833C11.8747 3.12798 10.4924 2.99183 9.15876 3.2571C7.82514 3.52237 6.60013 4.17716 5.63864 5.13864C4.67716 6.10013 4.02238 7.32513 3.7571 8.65875C3.49183 9.99237 3.62798 11.3747 4.14833 12.6309C4.66868 13.8872 5.54987 14.9609 6.68046 15.7164C7.81105 16.4718 9.14026 16.875 10.5 16.875C12.3227 16.8729 14.0702 16.1479 15.3591 14.8591C16.6479 13.5702 17.3729 11.8227 17.375 10Z" fill="white"/>
</svg>
